<?xml version="1.0" encoding="UTF-8"?>
<svg version="1.1" xmlns="http://www.w3.org/2000/svg" width="1080" height="1080">
<path d="M0 0 C4.6986251 3.6669519 9.11205696 7.53092653 13.42041016 11.64794922 C14.73747767 12.89211752 16.05518605 14.13560776 17.37353516 15.37841797 C18.00453125 15.97444824 18.63552734 16.57047852 19.28564453 17.18457031 C21.55116862 19.30991353 23.85435539 21.39038066 26.17041016 23.46044922 C29.95330997 26.84251197 33.69524435 30.26514914 37.42041016 33.71044922 C37.96882568 34.21761475 38.51724121 34.72478027 39.08227539 35.24731445 C39.63085205 35.75464111 40.17942871 36.26196777 40.74462891 36.78466797 C47.45325235 42.98861683 54.18004706 49.17231715 60.98291016 55.27294922 C65.94779107 59.72942632 70.84675967 64.25492984 75.74462891 68.78466797 C78.90140582 71.70396769 82.06465646 74.61611105 85.23291016 77.52294922 C86.20486328 78.41498047 87.17681641 79.30701172 88.17822266 80.22607422 C91.74850433 83.47532239 95.3600744 86.67673882 98.98681641 89.86279297 C103.46356421 94.15265566 105.19111905 97.7532566 105.48291016 103.96044922 C105.36861114 112.64717428 100.49076559 117.5050204 94.60791016 123.39794922 C93.82931641 124.14947266 93.05072266 124.90099609 92.24853516 125.67529297 C90.34508682 127.54161731 88.58901319 129.43645755 86.85791016 131.46044922 C83.40633641 135.48326244 79.79556972 139.34485515 76.17041016 143.21044922 C71.47355325 148.22178384 66.82313405 153.2660907 62.24462891 158.38623047 C58.34943933 162.72421246 54.39697286 167.00997496 50.45263672 171.30322266 C48.14832464 173.81222033 45.84699924 176.3239539 43.54541016 178.83544922 C42.62875824 179.83546274 41.71209156 180.83546273 40.79541016 181.83544922 C40.11478516 182.57794922 40.11478516 182.57794922 39.42041016 183.33544922 C35.29541016 187.83544922 35.29541016 187.83544922 33.91992188 189.3359375 C33.00482383 190.33425583 32.0897846 191.33262808 31.17480469 192.33105469 C28.85962163 194.85723342 26.54337005 197.38241754 24.22509766 199.90576172 C19.99774265 204.50894686 15.78014933 209.11958697 11.60791016 213.77294922 C7.148971 218.74057305 2.62102684 223.64228173 -1.91162109 228.54248047 C-6.15249717 233.12812132 -10.36913833 237.73589839 -14.58691406 242.34277344 C-15.98038136 243.86359798 -17.37546736 245.38292246 -18.77099609 246.90185547 C-22.9998246 251.50618869 -27.21862071 256.11821517 -31.39208984 260.77294922 C-35.851029 265.74057305 -40.37897316 270.64228173 -44.91162109 275.54248047 C-49.15249717 280.12812132 -53.36913833 284.73589839 -57.58691406 289.34277344 C-58.98038136 290.86359798 -60.37546736 292.38292246 -61.77099609 293.90185547 C-62.23602539 294.4082959 -62.70105469 294.91473633 -63.18017578 295.43652344 C-64.10624803 296.4449922 -65.03267506 297.4531353 -65.95947266 298.4609375 C-68.93230483 301.6998499 -71.85455045 304.97987703 -74.76708984 308.27294922 C-76.15653377 309.79962217 -77.55154211 311.32126899 -78.95458984 312.83544922 C-79.45087891 313.38330078 -79.94716797 313.93115234 -80.45849609 314.49560547 C-88.29023125 322.14883954 -103.5764926 320.39675876 -113.859375 320.84448242 C-115.64935534 320.92786835 -117.43930733 321.01186453 -119.22923279 321.09642029 C-124.06135822 321.32251417 -128.89387059 321.53886978 -133.72656298 321.75246453 C-136.7501503 321.88651856 -139.77363734 322.02264161 -142.79710007 322.15947533 C-153.35641898 322.63723246 -163.91606606 323.10682793 -174.47607422 323.5690918 C-184.3033217 323.99950489 -194.12961768 324.44825727 -203.95565379 324.90541965 C-212.41062638 325.29794938 -220.86612145 325.67739887 -229.32213628 326.04679173 C-234.36462489 326.26730381 -239.40673918 326.49309768 -244.44838333 326.73220253 C-249.18714672 326.95651339 -253.92635309 327.16450086 -258.66638374 327.36014748 C-260.40121355 327.4344997 -262.13580871 327.51459306 -263.87008095 327.60097885 C-283.72150278 328.58217097 -283.72150278 328.58217097 -289.51822853 323.45146656 C-293.16964576 319.32256364 -295.24293927 315.52526054 -295.32958984 310.02294922 C-295.35794922 309.21212891 -295.38630859 308.40130859 -295.41552734 307.56591797 C-294.21443729 300.4509862 -289.09956742 295.50615748 -284.26708984 290.52294922 C-283.00469604 289.19676856 -281.74297664 287.86994561 -280.48193359 286.54248047 C-279.87333496 285.9052002 -279.26473633 285.26791992 -278.63769531 284.61132812 C-276.4926803 282.34807904 -274.40518066 280.03739599 -272.32958984 277.71044922 C-268.90894388 273.88288627 -265.44212109 270.10189581 -261.95458984 266.33544922 C-258.42757003 262.52564924 -254.91948676 258.70207332 -251.45458984 254.83544922 C-247.01842221 249.88680013 -242.5102515 245.00710149 -237.99755859 240.12841797 C-233.75668252 235.54277712 -229.54004136 230.93500004 -225.32226562 226.328125 C-223.92879833 224.80730046 -222.53371233 223.28797597 -221.13818359 221.76904297 C-216.90935508 217.16470974 -212.69055898 212.55268327 -208.51708984 207.89794922 C-204.05815069 202.93032538 -199.53020653 198.0286167 -194.99755859 193.12841797 C-190.75668252 188.54277712 -186.54004136 183.93500004 -182.32226562 179.328125 C-180.92879833 177.80730046 -179.53371233 176.28797597 -178.13818359 174.76904297 C-173.90935508 170.16470974 -169.69055898 165.55268327 -165.51708984 160.89794922 C-161.05815069 155.93032538 -156.53020653 151.0286167 -151.99755859 146.12841797 C-147.75668252 141.54277712 -143.54004136 136.93500004 -139.32226562 132.328125 C-137.92879833 130.80730046 -136.53371233 129.28797597 -135.13818359 127.76904297 C-130.90935508 123.16470974 -126.69055898 118.55268327 -122.51708984 113.89794922 C-118.06061274 108.93306831 -113.53510923 104.0340997 -109.00537109 99.13623047 C-102.80142223 92.42760702 -96.61772191 85.70081232 -90.51708984 78.89794922 C-86.05815069 73.93032538 -81.53020653 69.0286167 -76.99755859 64.12841797 C-72.75668252 59.54277712 -68.54004136 54.93500004 -64.32226562 50.328125 C-62.92879833 48.80730046 -61.53371233 47.28797597 -60.13818359 45.76904297 C-55.90935508 41.16470974 -51.69055898 36.55268327 -47.51708984 31.89794922 C-43.56887844 27.49931798 -39.57289929 23.14705392 -35.55224609 18.81469727 C-32.98398294 16.04537907 -30.43392299 13.26313757 -27.91943359 10.44482422 C-27.4313623 9.90132324 -26.94329102 9.35782227 -26.44042969 8.79785156 C-25.09843873 7.30117485 -23.76263797 5.79895434 -22.42724609 4.29638672 C-16.37576674 -1.72641264 -7.87542387 -4.69220233 0 0 Z " fill="#5762DF" transform="translate(636.95458984375,499.16455078125)"/>
<path d="M0 0 C1.00266875 -0.00419827 2.00533751 -0.00839653 3.03839016 -0.01272202 C4.68236074 -0.00428709 4.68236074 -0.00428709 6.35954285 0.00431824 C8.11750104 0.0015217 8.11750104 0.0015217 9.91097355 -0.00133133 C13.17271762 -0.00435252 16.43429965 0.00170837 19.69602537 0.01167035 C23.24305338 0.02037285 26.79007644 0.01760856 30.33711243 0.01651001 C37.3491523 0.01638508 44.36112961 0.02778255 51.37314987 0.043652 C57.11129811 0.0566169 62.84944298 0.06638588 68.58760071 0.07402039 C87.21089957 0.09941568 105.83411696 0.14059023 124.457358 0.193259 C138.56731214 0.23302423 152.67725468 0.26219357 166.78724658 0.28464329 C186.93013077 0.31675755 207.07289549 0.36487182 227.21568203 0.43595982 C237.58416493 0.47231716 247.95258277 0.50273483 258.32112122 0.51741028 C267.20903786 0.53015912 276.09677883 0.55692853 284.98459482 0.60155028 C289.55425063 0.6241085 294.12369239 0.64018928 298.69340897 0.63917351 C302.90003839 0.63843468 307.10617582 0.65614337 311.31267774 0.68841779 C312.83863756 0.69689991 314.36465256 0.69866007 315.8906256 0.69303763 C330.09470765 0.6476055 330.09470765 0.6476055 335.94230652 5.24723816 C341.42204828 10.87508105 342.24273047 16.81724885 342.18522644 24.42277527 C342.18712479 25.22241699 342.18902313 26.02205872 342.190979 26.84593201 C342.19467909 29.48891555 342.18396983 32.13162268 342.17277527 34.77458191 C342.17157995 36.64230314 342.17113105 38.51002498 342.17138672 40.37774658 C342.16982168 44.30767044 342.16154795 48.23750327 342.14811707 52.16740417 C342.1314176 57.10664568 342.1274202 62.04578593 342.127882 66.98505211 C342.12776294 79.07314558 342.0617501 91.15975695 341.94230652 103.24723816 C341.93515877 104.06669167 341.92801102 104.88614517 341.92064667 105.7304306 C341.88022619 110.21693292 341.81936343 114.70207684 341.7209568 119.18770027 C341.68193134 121.12204877 341.66070119 123.05673101 341.6401062 124.99136353 C341.41897462 133.07387025 340.49496274 136.88156384 334.56730652 142.49723816 C329.06997136 146.16212827 323.755861 146.53556954 317.30265808 146.49015808 C316.43498149 146.49201961 315.5673049 146.49388113 314.67333508 146.49579906 C311.72644985 146.49946366 308.77979685 146.48852331 305.83293152 146.47770691 C303.65853891 146.47705684 301.48414594 146.47721684 299.30975342 146.47810364 C293.22952696 146.4774553 287.1494008 146.46313976 281.06920242 146.44548416 C277.18953345 146.43473047 273.30986816 146.42663713 269.43019104 146.41944885 C257.85789029 146.39779514 246.28561206 146.37250887 234.71334839 146.33575439 C215.36273296 146.27477316 196.01225436 146.23617571 176.6615448 146.22087097 C155.23365925 146.20383608 133.80589084 146.16715236 112.37807274 146.11032963 C100.35092179 146.07890714 88.3238711 146.05571764 76.29667664 146.05250549 C65.90143332 146.04958881 55.50639941 146.02918673 45.11123842 145.98701453 C39.71845809 145.96567547 34.32597614 145.95267811 28.93315315 145.96103287 C23.93667665 145.96854093 18.94081698 145.9528959 13.94445372 145.91916621 C12.12584929 145.9109523 10.30718335 145.91118212 8.488585 145.92064416 C-8.01349288 145.99808117 -8.01349288 145.99808117 -13.71068287 141.61077404 C-19.15063273 136.1040863 -20.1810649 131.00846264 -20.18708801 123.53800964 C-20.19017975 122.40308075 -20.19327148 121.26815186 -20.19645691 120.09883118 C-20.1944931 118.86776642 -20.1925293 117.63670166 -20.19050598 116.36833191 C-20.19200653 115.07216949 -20.19350708 113.77600708 -20.1950531 112.44056702 C-20.19882043 108.18860324 -20.19119275 103.93669223 -20.18269348 99.68473816 C-20.18042218 98.22545883 -20.17818431 96.76617945 -20.17597961 95.30690002 C-20.15967619 85.66512425 -20.12059246 76.02354321 -20.06884766 66.38189697 C-20.05798377 64.3027934 -20.04822969 62.22368743 -20.03877258 60.14457703 C-20.00294524 52.74018322 -19.94471111 45.33667737 -19.84815979 37.93281555 C-19.82130121 35.69401333 -19.80093841 33.45512324 -19.7872467 31.21620178 C-19.76621901 28.11787854 -19.72016424 25.0209364 -19.66706848 21.92301941 C-19.66582977 21.02284088 -19.66459106 20.12266235 -19.66331482 19.19520569 C-19.53414643 13.73442541 -18.67627493 10.58744665 -15.05769348 6.24723816 C-10.46491293 2.00774842 -6.26797182 -0.00395867 0 0 Z " fill="#5762DF" transform="translate(280.0576934814453,311.7527618408203)"/>
<path d="M0 0 C2.25615974 -0.00965925 4.51138955 -0.0406829 6.76733398 -0.07226562 C23.77697969 -0.20047489 23.77697969 -0.20047489 30.24975586 4.95898438 C30.69319336 5.54679687 31.13663086 6.13460938 31.59350586 6.74023438 C32.05756836 7.32804687 32.52163086 7.91585938 32.99975586 8.52148438 C34.98467634 11.64064514 35.22766121 14.348418 35.27191162 17.94424438 C35.28603592 18.91140381 35.30016022 19.87856323 35.31471252 20.87503052 C35.32518112 21.93479095 35.33564972 22.99455139 35.34643555 24.08642578 C35.36851326 25.76251923 35.36851326 25.76251923 35.39103699 27.47247314 C35.43803882 31.17887161 35.47736092 34.88529597 35.51538086 38.59179688 C35.5292408 39.85758953 35.54310074 41.12338219 35.55738068 42.4275322 C35.62311782 48.43802333 35.68528886 54.44852326 35.74155974 60.45910895 C35.80641997 67.38233003 35.88451965 74.30523222 35.97424197 81.22817481 C36.05118663 87.23536143 36.11106248 93.24259853 36.1648941 99.25004196 C36.19010078 101.79929537 36.22044266 104.34850347 36.25606537 106.8976326 C36.304669 110.47101251 36.33372883 114.04405976 36.3581543 117.61767578 C36.37671982 118.66529083 36.39528534 119.71290588 36.41441345 120.79226685 C36.43465974 127.79540472 35.88481909 134.73840506 31.37475586 140.39648438 C30.78694336 140.83992187 30.19913086 141.28335938 29.59350586 141.74023438 C29.00569336 142.20429688 28.41788086 142.66835938 27.81225586 143.14648438 C24.43237592 145.29731706 21.48756928 145.3732128 17.59225464 145.39845276 C16.44839798 145.40824158 15.30454132 145.4180304 14.12602234 145.42811584 C12.24183342 145.43674904 12.24183342 145.43674904 10.31958008 145.44555664 C8.98400063 145.45513704 7.64842421 145.46514722 6.31285095 145.47555542 C2.68239419 145.50261724 -0.94807554 145.52362616 -4.57857752 145.54355741 C-8.38206989 145.56544782 -12.18552266 145.59283023 -15.98898315 145.61961365 C-23.20299681 145.66956663 -30.41703288 145.71447952 -37.63109004 145.75763601 C-45.8061624 145.80680634 -53.98119171 145.86187334 -62.15622354 145.9173156 C-74.22626276 145.99895957 -86.2963168 146.0784355 -98.36640739 146.15212631 C-100.28621903 146.16387825 -102.20602917 146.17587523 -104.12583923 146.18788147 C-107.38605063 146.20745493 -110.64626361 146.2242345 -113.90649414 146.24023438 C-115.26471346 146.2496597 -115.26471346 146.2496597 -116.65037155 146.25927544 C-123.0839436 146.2891954 -128.80476005 146.04935204 -133.76977539 141.55273438 C-137.60106501 137.16366751 -139.0795398 134.39135499 -139.21899414 128.49023438 C-139.25637695 127.46414063 -139.29375977 126.43804687 -139.33227539 125.38085938 C-138.34757975 118.11759975 -132.10708265 113.1873079 -127.11352539 108.28710938 C-126.36689133 107.54567688 -125.62025726 106.80424438 -124.85099792 106.04034424 C-122.47839366 103.6854755 -120.09917605 101.33744177 -117.71899414 98.99023438 C-115.32900921 96.62785851 -112.94050077 94.26403605 -110.55485535 91.89727783 C-109.0729832 90.42767545 -107.58844631 88.96075431 -106.10102844 87.49676514 C-105.43330917 86.83557678 -104.7655899 86.17438843 -104.07763672 85.49316406 C-103.4879158 84.91169617 -102.89819489 84.33022827 -102.29060364 83.73114014 C-100.80456591 82.27037292 -100.80456591 82.27037292 -99.90649414 80.24023438 C-99.24649414 80.24023438 -98.58649414 80.24023438 -97.90649414 80.24023438 C-97.90649414 79.58023438 -97.90649414 78.92023438 -97.90649414 78.24023438 C-97.24649414 78.24023438 -96.58649414 78.24023438 -95.90649414 78.24023438 C-95.90649414 77.58023438 -95.90649414 76.92023438 -95.90649414 76.24023438 C-95.24649414 76.24023438 -94.58649414 76.24023438 -93.90649414 76.24023438 C-93.90649414 75.58023438 -93.90649414 74.92023438 -93.90649414 74.24023438 C-93.24649414 74.24023438 -92.58649414 74.24023438 -91.90649414 74.24023438 C-91.90649414 73.58023438 -91.90649414 72.92023438 -91.90649414 72.24023438 C-91.24649414 72.24023438 -90.58649414 72.24023438 -89.90649414 72.24023438 C-89.70038513 71.70979019 -89.49427612 71.17934601 -89.28192139 70.63282776 C-87.33610457 67.24802609 -84.64557955 64.69296952 -81.8996582 61.95874023 C-81.28477539 61.33874649 -80.66989258 60.71875275 -80.03637695 60.07997131 C-78.00344026 58.03314161 -75.96316468 55.99381981 -73.92211914 53.95507812 C-72.50423474 52.53330632 -71.08657432 51.11131114 -69.66912842 49.68910217 C-66.69664075 46.70915266 -63.72030658 43.73310896 -60.74145508 40.75952148 C-56.92875302 36.95261041 -53.12752763 33.13446604 -49.32934952 29.31307125 C-46.40402822 26.37300105 -43.47179092 23.43990528 -40.53752899 20.50876045 C-39.13339894 19.10411766 -37.73162528 17.69711515 -36.33228302 16.28770256 C-34.37226299 14.31531514 -32.40289633 12.35274604 -30.4309082 10.39233398 C-29.57030792 9.5202681 -29.57030792 9.5202681 -28.69232178 8.63058472 C-20.02902731 0.07902242 -11.59403193 0.0300072 0 0 Z " fill="#5762DF" transform="translate(805.906494140625,309.759765625)"/>
<path d="M0 0 C1.25035034 -0.00281982 2.50070068 -0.00563965 3.78894043 -0.00854492 C5.17736831 -0.00660047 6.56579604 -0.00455229 7.95422363 -0.00241089 C9.41463261 -0.0037658 10.87504124 -0.00554624 12.33544922 -0.00772095 C16.30696637 -0.01228779 20.27845759 -0.01050793 24.2499752 -0.00734186 C28.4115239 -0.00481058 32.57307036 -0.0071583 36.73461914 -0.00872803 C43.73230385 -0.01054909 50.72997802 -0.00814675 57.72766113 -0.00338745 C65.79761846 0.00203805 73.86755046 0.00030475 81.93750715 -0.00521386 C88.87526397 -0.00976713 95.81301321 -0.01038422 102.75077105 -0.00777519 C106.88983607 -0.00622238 111.02888924 -0.00599086 115.16795349 -0.00931168 C119.06836618 -0.01222199 122.96874664 -0.01015718 126.86915588 -0.00441742 C128.29326321 -0.00310592 129.7173733 -0.00345622 131.14147949 -0.00568008 C139.1602853 -0.01703744 147.04787252 0.21878579 155.01867676 1.12698364 C154.68867676 2.11698364 154.35867676 3.10698364 154.01867676 4.12698364 C153.02867676 4.12698364 152.03867676 4.12698364 151.01867676 4.12698364 C149.31335353 6.06707886 149.31335353 6.06707886 148.01867676 8.12698364 C149.00867676 8.62198364 149.00867676 8.62198364 150.01867676 9.12698364 C149.68867676 10.11698364 149.35867676 11.10698364 149.01867676 12.12698364 C149.22479754 14.72242292 149.59299155 17.27243081 149.96008301 19.84963989 C149.97941895 20.60116333 149.99875488 21.35268677 150.01867676 22.12698364 C149.35867676 22.78698364 148.69867676 23.44698364 148.01867676 24.12698364 C147.35867676 24.12698364 146.69867676 24.12698364 146.01867676 24.12698364 C144.66985267 24.76172439 143.33401086 25.42547212 142.01867676 26.12698364 C141.68867676 24.47698364 141.35867676 22.82698364 141.01867676 21.12698364 C141.67867676 21.12698364 142.33867676 21.12698364 143.01867676 21.12698364 C143.01867676 20.46698364 143.01867676 19.80698364 143.01867676 19.12698364 C143.67867676 19.12698364 144.33867676 19.12698364 145.01867676 19.12698364 C145.72062669 17.32445495 145.72062669 17.32445495 146.01867676 15.12698364 C145.37059111 13.78452053 144.70045092 12.45265563 144.01867676 11.12698364 C143.63118463 8.80203087 143.28884837 6.46847096 143.01867676 4.12698364 C142.02867676 3.79698364 141.03867676 3.46698364 140.01867676 3.12698364 C139.68867676 3.78698364 139.35867676 4.44698364 139.01867676 5.12698364 C136.45946471 7.82089107 134.11692275 10.06148632 131.01867676 12.12698364 C130.02867676 11.13698364 130.02867676 11.13698364 129.01867676 10.12698364 C129.01867676 9.13698364 129.01867676 8.14698364 129.01867676 7.12698364 C130.00867676 7.12698364 130.99867676 7.12698364 132.01867676 7.12698364 C132.01867676 6.46698364 132.01867676 5.80698364 132.01867676 5.12698364 C132.34867676 4.79698364 132.67867676 4.46698364 133.01867676 4.12698364 C129.96954448 3.11587272 129.96954448 3.11587272 127.01867676 4.12698364 C126.68867676 3.46698364 126.35867676 2.80698364 126.01867676 2.12698364 C88.72867676 2.12698364 51.43867676 2.12698364 13.01867676 2.12698364 C12.68867676 2.78698364 12.35867676 3.44698364 12.01867676 4.12698364 C11.35867676 4.12698364 10.69867676 4.12698364 10.01867676 4.12698364 C10.34867676 5.44698364 10.67867676 6.76698364 11.01867676 8.12698364 C10.35867676 8.12698364 9.69867676 8.12698364 9.01867676 8.12698364 C9.01867676 7.46698364 9.01867676 6.80698364 9.01867676 6.12698364 C8.35867676 6.12698364 7.69867676 6.12698364 7.01867676 6.12698364 C7.01867676 7.11698364 7.01867676 8.10698364 7.01867676 9.12698364 C6.35867676 9.12698364 5.69867676 9.12698364 5.01867676 9.12698364 C4.85432129 10.08411255 4.85432129 10.08411255 4.68664551 11.06057739 C4.44881348 12.30001099 4.44881348 12.30001099 4.20617676 13.56448364 C4.05535645 14.38819458 3.90453613 15.21190552 3.74914551 16.06057739 C3.50809082 16.74249146 3.26703613 17.42440552 3.01867676 18.12698364 C2.02867676 18.45698364 1.03867676 18.78698364 0.01867676 19.12698364 C-0.08444824 20.36448364 -0.18757324 21.60198364 -0.29382324 22.87698364 C-0.73670249 26.40130442 -1.34351815 28.59063259 -3.98132324 31.12698364 C-4.97132324 31.45698364 -5.96132324 31.78698364 -6.98132324 32.12698364 C-7.31132324 32.78698364 -7.64132324 33.44698364 -7.98132324 34.12698364 C-7.32132324 34.12698364 -6.66132324 34.12698364 -5.98132324 34.12698364 C-6.29382324 36.06448364 -6.29382324 36.06448364 -6.98132324 38.12698364 C-8.46632324 38.62198364 -8.46632324 38.62198364 -9.98132324 39.12698364 C-10.31132324 39.78698364 -10.64132324 40.44698364 -10.98132324 41.12698364 C-12.24850424 35.89986202 -12.01099335 30.8478499 -11.91882324 25.50198364 C-11.87388221 22.20175794 -11.87388221 22.20175794 -12.57116699 19.33401489 C-12.98132324 17.12698364 -12.98132324 17.12698364 -11.54382324 14.81448364 C-11.02819824 14.25760864 -10.51257324 13.70073364 -9.98132324 13.12698364 C-11.63132324 11.80698364 -13.28132324 10.48698364 -14.98132324 9.12698364 C-13.99132324 7.80698364 -13.00132324 6.48698364 -11.98132324 5.12698364 C-11.32132324 6.44698364 -10.66132324 7.76698364 -9.98132324 9.12698364 C-9.00524107 6.19873712 -8.89905656 4.17085089 -8.98132324 1.12698364 C-5.74294731 0.047525 -3.4067256 0.00117934 0 0 Z M145.01867676 9.12698364 C145.01867676 9.78698364 145.01867676 10.44698364 145.01867676 11.12698364 C145.67867676 10.79698364 146.33867676 10.46698364 147.01867676 10.12698364 C146.35867676 9.79698364 145.69867676 9.46698364 145.01867676 9.12698364 Z M139.01867676 24.12698364 C139.67867676 24.12698364 140.33867676 24.12698364 141.01867676 24.12698364 C140.68867676 24.78698364 140.35867676 25.44698364 140.01867676 26.12698364 C139.68867676 25.46698364 139.35867676 24.80698364 139.01867676 24.12698364 Z " fill="#5762DF" transform="translate(280.9813232421875,311.8730163574219)"/>
<path d="M0 0 C4.89326308 1.39807517 7.0857479 3.90429435 10 8 C12.11561417 12.98125209 12.27526329 17.35752048 12.22705078 22.66748047 C12.22734283 23.51691727 12.22763489 24.36635406 12.22793579 25.24153137 C12.22654869 28.03352269 12.21101678 30.82524312 12.1953125 33.6171875 C12.19158017 35.5591721 12.18873423 37.50115859 12.18673706 39.44314575 C12.17911798 44.54277793 12.1594843 49.64229534 12.1373291 54.74188232 C12.1168335 59.95030159 12.10772741 65.15873949 12.09765625 70.3671875 C12.07623678 80.57817529 12.04212166 90.78907809 12 101 C11.67 101 11.34 101 11 101 C10.505 96.545 10.505 96.545 10 92 C8.35 91.67 6.7 91.34 5 91 C5.66 87.04 6.32 83.08 7 79 C6.01 79.66 5.02 80.32 4 81 C3.34 81 2.68 81 2 81 C-0.99518961 81.57971412 -2.35678608 82.23785739 -5 84 C-5.33 83.01 -5.66 82.02 -6 81 C-6.5775 81.165 -7.155 81.33 -7.75 81.5 C-11.40080901 82.31129089 -15.44480782 82.42414332 -19.0625 81.4375 C-21.0674281 80.76986497 -21.0674281 80.76986497 -23 82 C-23.495 79.525 -23.495 79.525 -24 77 C-22.35 77.66 -20.7 78.32 -19 79 C-19 78.34 -19 77.68 -19 77 C-17.35 77.66 -15.7 78.32 -14 79 C-13.67 77.35 -13.34 75.7 -13 74 C-13.99 74 -14.98 74 -16 74 C-18 71 -18 71 -18 68 C-21.09718886 67.00447501 -22.90271275 67.10078757 -26 68 C-26.99 68 -27.98 68 -29 68 C-29.495 65.525 -29.495 65.525 -30 63 C-29.34 63 -28.68 63 -28 63 C-28 62.34 -28 61.68 -28 61 C-27.34 61 -26.68 61 -26 61 C-26.33 62.32 -26.66 63.64 -27 65 C-26.34 65 -25.68 65 -25 65 C-25 64.34 -25 63.68 -25 63 C-24.34 63 -23.68 63 -23 63 C-23 62.34 -23 61.68 -23 61 C-22.34 61 -21.68 61 -21 61 C-21.33 62.32 -21.66 63.64 -22 65 C-21.34 65 -20.68 65 -20 65 C-20 64.34 -20 63.68 -20 63 C-19.34 63 -18.68 63 -18 63 C-18 62.34 -18 61.68 -18 61 C-17.34 61 -16.68 61 -16 61 C-16.33 62.32 -16.66 63.64 -17 65 C-16.34 65 -15.68 65 -15 65 C-15 64.34 -15 63.68 -15 63 C-14.34 63 -13.68 63 -13 63 C-13 62.34 -13 61.68 -13 61 C-12.34 61 -11.68 61 -11 61 C-11 60.01 -11 59.02 -11 58 C-10.34 58 -9.68 58 -9 58 C-9 58.66 -9 59.32 -9 60 C-8.34 60 -7.68 60 -7 60 C-7 60.66 -7 61.32 -7 62 C-5.68 62.33 -4.36 62.66 -3 63 C-2.3125 65.3125 -2.3125 65.3125 -2 68 C-3.3125 69.8125 -3.3125 69.8125 -5 71 C-5.66 71 -6.32 71 -7 71 C-7.66 71.99 -8.32 72.98 -9 74 C-7.68 74.33 -6.36 74.66 -5 75 C-5.33 76.32 -5.66 77.64 -6 79 C-5.34 79 -4.68 79 -4 79 C-3.9175 78.21625 -3.835 77.4325 -3.75 76.625 C-3 74 -3 74 -1.0625 72.8125 C-0.0415625 72.4103125 -0.0415625 72.4103125 1 72 C1.99 71.01 1.99 71.01 3 70 C3.99 70.495 3.99 70.495 5 71 C5.33 69.35 5.66 67.7 6 66 C6.66 66 7.32 66 8 66 C8.144375 67.134375 8.28875 68.26875 8.4375 69.4375 C8.61171478 72.80777201 8.61171478 72.80777201 10 74 C10.33 55.19 10.66 36.38 11 17 C10.34 17 9.68 17 9 17 C8.505 18.485 8.505 18.485 8 20 C7.01 20 6.02 20 5 20 C4.34 20.99 3.68 21.98 3 23 C2.01 23 1.02 23 0 23 C0.50603992 20.83125748 0.99983813 19.00032373 2 17 C2.66 17 3.32 17 4 17 C4 16.34 4 15.68 4 15 C4.99 15 5.98 15 7 15 C7 13.68 7 12.36 7 11 C6.34 11 5.68 11 5 11 C4.01 11 3.02 11 2 11 C1.71125 10.401875 1.4225 9.80375 1.125 9.1875 C-0.04742026 6.80672208 -0.04742026 6.80672208 -2 4 C-1.34 2.68 -0.68 1.36 0 0 Z M-10 60 C-9 62 -9 62 -9 62 Z M-8 62 C-8.66 63.32 -9.32 64.64 -10 66 C-9.01 65.67 -8.02 65.34 -7 65 C-7.33 64.01 -7.66 63.02 -8 62 Z M-13 66 C-13.33 67.32 -13.66 68.64 -14 70 C-13.34 70 -12.68 70 -12 70 C-12 69.34 -12 68.68 -12 68 C-11.34 68 -10.68 68 -10 68 C-10.33 67.34 -10.66 66.68 -11 66 C-11.66 66 -12.32 66 -13 66 Z M-10 75 C-10.33 76.32 -10.66 77.64 -11 79 C-10.34 79 -9.68 79 -9 79 C-9 78.34 -9 77.68 -9 77 C-8.34 77 -7.68 77 -7 77 C-7.33 76.34 -7.66 75.68 -8 75 C-8.66 75 -9.32 75 -10 75 Z M-30 57 C-29.34 57.33 -28.68 57.66 -28 58 C-28.375 59.9375 -28.375 59.9375 -29 62 C-29.99 62.495 -29.99 62.495 -31 63 C-30.835 63.804375 -30.67 64.60875 -30.5 65.4375 C-29.79562403 69.04742685 -30.31581519 70.63163039 -32 74 C-34.625 75.8125 -34.625 75.8125 -37 77 C-37.33 75.35 -37.66 73.7 -38 72 C-37.34 72 -36.68 72 -36 72 C-36 70.68 -36 69.36 -36 68 C-35.4740625 66.7625 -35.4740625 66.7625 -34.9375 65.5 C-33.91085033 62.76226755 -34.00459432 61.68759533 -35 59 C-33.68 59 -32.36 59 -31 59 C-30.67 58.34 -30.34 57.68 -30 57 Z M-33 69 C-32 71 -32 71 -32 71 Z M8 68 C8.66 68 9.32 68 10 68 C9.67 68.99 9.34 69.98 9 71 C8.67 70.01 8.34 69.02 8 68 Z M-40 75 C-39.34 75 -38.68 75 -38 75 C-38.33 75.66 -38.66 76.32 -39 77 C-39.33 76.34 -39.66 75.68 -40 75 Z M-26 80 C-25.34 80 -24.68 80 -24 80 C-24.33 80.66 -24.66 81.32 -25 82 C-25.33 81.34 -25.66 80.68 -26 80 Z " fill="#5763DE" transform="translate(610,314)"/>
<path d="M0 0 C4.53487644 -0.07479497 9.06938482 -0.12890262 13.60473633 -0.16479492 C15.14386255 -0.17977543 16.68294688 -0.2001671 18.22192383 -0.22631836 C37.3652931 -0.54319984 37.3652931 -0.54319984 44.15625 4.6484375 C44.82140625 5.50308594 44.82140625 5.50308594 45.5 6.375 C45.9640625 6.93960937 46.428125 7.50421875 46.90625 8.0859375 C48 10 48 10 49 15 C46.03 16.98 43.06 18.96 40 21 C39.505 19.02 39.505 19.02 39 17 C37.02098426 14.77022004 37.02098426 14.77022004 35 13 C33.02 15.64 31.04 18.28 29 21 C28.01 20.34 27.02 19.68 26 19 C25.01 19.66 24.02 20.32 23 21 C22.34 20.34 21.68 19.68 21 19 C20.01 19.66 19.02 20.32 18 21 C17.34 20.34 16.68 19.68 16 19 C15.01 19 14.02 19 13 19 C11.99666017 16.99332033 11.54184994 15.16739976 11 13 C10.67 12.34 10.34 11.68 10 11 C10.33 10.01 10.66 9.02 11 8 C11.99 8 12.98 8 14 8 C14 7.34 14 6.68 14 6 C14.66 6 15.32 6 16 6 C15.67 7.32 15.34 8.64 15 10 C15.66 10 16.32 10 17 10 C17 9.34 17 8.68 17 8 C17.66 8 18.32 8 19 8 C19 7.34 19 6.68 19 6 C19.66 6 20.32 6 21 6 C20.67 7.32 20.34 8.64 20 10 C20.66 10 21.32 10 22 10 C21.95875 9.05125 21.9175 8.1025 21.875 7.125 C22 4 22 4 24 2 C18.555 1.505 18.555 1.505 13 1 C12.34 2.32 11.68 3.64 11 5 C8.375 5.75 8.375 5.75 6 6 C5.67 5.01 5.34 4.02 5 3 C4.01 3 3.02 3 2 3 C1.34 2.01 0.68 1.02 0 0 Z M44 8 C45 10 45 10 45 10 Z M43 10 C42.67 10.66 42.34 11.32 42 12 C42.99 11.67 43.98 11.34 45 11 C44.34 10.67 43.68 10.34 43 10 Z M13 12 C13 12.66 13 13.32 13 14 C13.66 13.67 14.32 13.34 15 13 C14.34 12.67 13.68 12.34 13 12 Z M39 12 C39 12.66 39 13.32 39 14 C39.99 14 40.98 14 42 14 C41.67 13.34 41.34 12.68 41 12 C40.34 12 39.68 12 39 12 Z " fill="#5762DE" transform="translate(792,310)"/>
<path d="M0 0 C0.66 0 1.32 0 2 0 C2 0.66 2 1.32 2 2 C2.66 2 3.32 2 4 2 C4.99 3.98 4.99 3.98 6 6 C6.99 5.67 7.98 5.34 9 5 C9 5.66 9 6.32 9 7 C8.34 7 7.68 7 7 7 C7.99 8.485 7.99 8.485 9 10 C10.65 9.34 12.3 8.68 14 8 C14.34707158 13.29284165 14.34707158 13.29284165 14 16 C12.1875 18 12.1875 18 10 19 C9.01 19 8.02 19 7 19 C7 19.99 7 20.98 7 22 C6.34 22 5.68 22 5 22 C5 22.99 5 23.98 5 25 C4.34 25 3.68 25 3 25 C3 24.34 3 23.68 3 23 C2.34 23 1.68 23 1 23 C0.67 23.66 0.34 24.32 0 25 C-1.33333333 26.33333333 -2.66666667 27.66666667 -4 29 C-4.99 30.485 -4.99 30.485 -6 32 C-5.67 32.66 -5.34 33.32 -5 34 C1.27 34.33 7.54 34.66 14 35 C14 35.33 14 35.66 14 36 C-19.99 36 -53.98 36 -89 36 C-89 35.67 -89 35.34 -89 35 C-49.895 34.505 -49.895 34.505 -10 34 C-11.32 33.34 -12.64 32.68 -14 32 C-14 30.35 -14 28.7 -14 27 C-13.505 27.99 -13.505 27.99 -13 29 C-12.34 29 -11.68 29 -11 29 C-11 28.01 -11 27.02 -11 26 C-10.34 26 -9.68 26 -9 26 C-8.67 26.33 -8.34 26.66 -8 27 C-7.3185177 25.10820797 -7.3185177 25.10820797 -7 23 C-7.99 22.01 -7.99 22.01 -9 21 C-8.75 17.4375 -8.75 17.4375 -8 14 C-7.34 13.67 -6.68 13.34 -6 13 C-6 11.68 -6 10.36 -6 9 C-5.34 8.01 -4.68 7.02 -4 6 C-3.01 6 -2.02 6 -1 6 C-0.67 4.02 -0.34 2.04 0 0 Z M1 2 C2 4 2 4 2 4 Z M-4 10 C-4.33 10.99 -4.66 11.98 -5 13 C-4.01 12.67 -3.02 12.34 -2 12 C-2.66 11.34 -3.32 10.68 -4 10 Z M5 10 C5.66 10.66 6.32 11.32 7 12 C7 11.34 7 10.68 7 10 C6.34 10 5.68 10 5 10 Z M12 13 C13 15 13 15 13 15 Z M-6 17 C-6.33 17.99 -6.66 18.98 -7 20 C-6.01 19.67 -5.02 19.34 -4 19 C-4.66 18.34 -5.32 17.68 -6 17 Z M-10 28 C-9 30 -9 30 -9 30 Z M9 3 C9.66 3.66 10.32 4.32 11 5 C10.34 5 9.68 5 9 5 C9 4.34 9 3.68 9 3 Z " fill="#4F59CB" transform="translate(592,422)"/>
<path d="M0 0 C19.36759067 -0.02340076 38.73517845 -0.04101437 58.10278034 -0.05181217 C67.0962757 -0.0569599 76.08976225 -0.0639735 85.08325195 -0.07543945 C92.92552913 -0.08543291 100.76779992 -0.0918645 108.61008328 -0.09408849 C112.75925721 -0.0953877 116.90841289 -0.09842329 121.05758095 -0.10573006 C124.97026036 -0.11256394 128.88291417 -0.1146021 132.79559898 -0.11310768 C134.2245434 -0.11338072 135.65348876 -0.11534184 137.08242798 -0.11920547 C145.11575498 -0.13984409 153.0149467 0.08699608 161 1 C160.67 1.99 160.34 2.98 160 4 C159.01 4 158.02 4 157 4 C155.29467677 5.94009522 155.29467677 5.94009522 154 8 C154.99 8.495 154.99 8.495 156 9 C155.67 9.99 155.34 10.98 155 12 C155.20612079 14.59543928 155.57431479 17.14544717 155.94140625 19.72265625 C155.96074219 20.47417969 155.98007812 21.22570312 156 22 C155.34 22.66 154.68 23.32 154 24 C153.34 24 152.68 24 152 24 C150.65117592 24.63474075 149.3153341 25.29848848 148 26 C147.67 24.35 147.34 22.7 147 21 C147.66 21 148.32 21 149 21 C149 20.34 149 19.68 149 19 C149.66 19 150.32 19 151 19 C151.70194993 17.19747131 151.70194993 17.19747131 152 15 C151.35191436 13.65753688 150.68177416 12.32567199 150 11 C149.61250787 8.67504723 149.27017161 6.34148732 149 4 C148.01 3.67 147.02 3.34 146 3 C145.67 3.66 145.34 4.32 145 5 C142.44078795 7.69390742 140.09824599 9.93450267 137 12 C136.01 11.01 136.01 11.01 135 10 C135 9.01 135 8.02 135 7 C135.99 7 136.98 7 138 7 C138 6.34 138 5.68 138 5 C138.33 4.67 138.66 4.34 139 4 C135.95086772 2.98888907 135.95086772 2.98888907 133 4 C132.67 3.34 132.34 2.68 132 2 C88.44 1.67 44.88 1.34 0 1 C0 0.67 0 0.34 0 0 Z M151 9 C151 9.66 151 10.32 151 11 C151.66 10.67 152.32 10.34 153 10 C152.34 9.67 151.68 9.34 151 9 Z M145 24 C145.66 24 146.32 24 147 24 C146.67 24.66 146.34 25.32 146 26 C145.67 25.34 145.34 24.68 145 24 Z " fill="#424CAC" transform="translate(275,312)"/>
<path d="M0 0 C-2.64 2.97 -5.28 5.94 -8 9 C-8.99 8.505 -8.99 8.505 -10 8 C-10.66 9.65 -11.32 11.3 -12 13 C-12.99 13 -13.98 13 -15 13 C-15.33 13.66 -15.66 14.32 -16 15 C-13.69 14.34 -11.38 13.68 -9 13 C-9 12.34 -9 11.68 -9 11 C-8.34 11 -7.68 11 -7 11 C-6.8125 13.375 -6.8125 13.375 -7 16 C-7.99 16.66 -8.98 17.32 -10 18 C-10.72382467 20.05925139 -10.72382467 20.05925139 -11 22 C-10.34 22 -9.68 22 -9 22 C-8.67 20.68 -8.34 19.36 -8 18 C-8 18.66 -8 19.32 -8 20 C-6.35 19.67 -4.7 19.34 -3 19 C-3.33 20.32 -3.66 21.64 -4 23 C-3.34 23 -2.68 23 -2 23 C-2 22.34 -2 21.68 -2 21 C-1.34 21 -0.68 21 0 21 C0 20.34 0 19.68 0 19 C0.66 19 1.32 19 2 19 C1.67 20.32 1.34 21.64 1 23 C1.66 23.33 2.32 23.66 3 24 C-0.44069624 26.29379749 -1.72290301 27 -6 27 C-7.33568021 26.67619874 -8.66923011 26.34342449 -10 26 C-10.99 26 -11.98 26 -13 26 C-13 23.36 -13 20.72 -13 18 C-13.66 18 -14.32 18 -15 18 C-15.33 18.66 -15.66 19.32 -16 20 C-18.0625 20.625 -18.0625 20.625 -20 21 C-20 19 -20 17 -20 15 C-37.82 32.82 -55.64 50.64 -74 69 C-74.66 68.67 -75.32 68.34 -76 68 C-67.50717309 59.43762697 -59.00623444 50.8833995 -50.49487877 42.33944225 C-46.54286368 38.37177916 -42.59368464 34.40137712 -38.65087891 30.42456055 C-34.84493259 26.58599071 -31.03168001 22.75482048 -27.21327591 18.92864418 C-25.75862284 17.46845305 -24.30661049 16.00562625 -22.85731125 14.54012108 C-20.82507591 12.48607247 -18.78360706 10.44164187 -16.73974609 8.39916992 C-16.14416901 7.79280701 -15.54859192 7.18644409 -14.93496704 6.56170654 C-6.65010907 -1.66252727 -6.65010907 -1.66252727 0 0 Z " fill="#4E58C7" transform="translate(792,312)"/>
<path d="M0 0 C4.66307014 -0.04937279 9.32598873 -0.08570627 13.98925781 -0.10986328 C15.57619883 -0.11993188 17.16312125 -0.13358767 18.75 -0.15087891 C21.02869247 -0.17509001 23.30714006 -0.18647422 25.5859375 -0.1953125 C26.29744965 -0.20563507 27.00896179 -0.21595764 27.74203491 -0.22659302 C29.49631665 -0.22699422 31.24996709 -0.12202209 33 0 C33.66 0.66 34.32 1.32 35 2 C34.2575 2.2475 33.515 2.495 32.75 2.75 C29.14900366 4.38681652 26.77795654 6.44408692 25 10 C25.66 10.33 26.32 10.66 27 11 C27.33 11.99 27.66 12.98 28 14 C27.67 14.66 27.34 15.32 27 16 C27.66 16.33 28.32 16.66 29 17 C27.02 18.32 25.04 19.64 23 21 C22.34 20.34 21.68 19.68 21 19 C20.01 19.66 19.02 20.32 18 21 C17.34 20.34 16.68 19.68 16 19 C15.01 19 14.02 19 13 19 C11.99666017 16.99332033 11.54184994 15.16739976 11 13 C10.67 12.34 10.34 11.68 10 11 C10.33 10.01 10.66 9.02 11 8 C11.99 8 12.98 8 14 8 C14 7.34 14 6.68 14 6 C14.66 6 15.32 6 16 6 C15.67 7.32 15.34 8.64 15 10 C15.66 10 16.32 10 17 10 C17 9.34 17 8.68 17 8 C17.66 8 18.32 8 19 8 C19 7.34 19 6.68 19 6 C19.66 6 20.32 6 21 6 C20.67 7.32 20.34 8.64 20 10 C20.66 10 21.32 10 22 10 C21.95875 9.05125 21.9175 8.1025 21.875 7.125 C22 4 22 4 24 2 C18.555 1.505 18.555 1.505 13 1 C12.34 2.32 11.68 3.64 11 5 C8.375 5.75 8.375 5.75 6 6 C5.67 5.01 5.34 4.02 5 3 C4.01 3 3.02 3 2 3 C1.34 2.01 0.68 1.02 0 0 Z M13 12 C13 12.66 13 13.32 13 14 C13.66 13.67 14.32 13.34 15 13 C14.34 12.67 13.68 12.34 13 12 Z M23 12 C22.67 13.32 22.34 14.64 22 16 C22.66 16 23.32 16 24 16 C24 15.34 24 14.68 24 14 C24.66 14 25.32 14 26 14 C25.67 13.34 25.34 12.68 25 12 C24.34 12 23.68 12 23 12 Z " fill="#5763DE" transform="translate(792,310)"/>
<path d="M0 0 C4.89326308 1.39807517 7.0857479 3.90429435 10 8 C11.9047097 12.59101942 12.27826939 16.74933616 12.22705078 21.65771484 C12.22734283 22.39986237 12.22763489 23.14200989 12.22793579 23.90664673 C12.22655072 26.34153235 12.21102871 28.77610582 12.1953125 31.2109375 C12.19157944 32.90629916 12.18873385 34.60166299 12.18673706 36.29702759 C12.1791237 40.74564638 12.15949505 45.19413328 12.1373291 49.6427002 C12.11682107 54.18756324 12.10772476 58.73244771 12.09765625 63.27734375 C12.0762469 72.18495358 12.04213882 81.0924658 12 90 C11.67 90 11.34 90 11 90 C11 65.91 11 41.82 11 17 C10.34 17 9.68 17 9 17 C8.67 17.99 8.34 18.98 8 20 C7.01 20 6.02 20 5 20 C4.34 20.99 3.68 21.98 3 23 C2.01 23 1.02 23 0 23 C0.50603992 20.83125748 0.99983813 19.00032373 2 17 C2.66 17 3.32 17 4 17 C4 16.34 4 15.68 4 15 C4.99 15 5.98 15 7 15 C7 13.68 7 12.36 7 11 C6.34 11 5.68 11 5 11 C4.01 11 3.02 11 2 11 C1.566875 10.1028125 1.566875 10.1028125 1.125 9.1875 C-0.04742026 6.80672208 -0.04742026 6.80672208 -2 4 C-1.34 2.68 -0.68 1.36 0 0 Z " fill="#4550B3" transform="translate(610,314)"/>
<path d="M0 0 C2 0 2 0 3.64453125 1.14453125 C5.5786837 3.79214627 5.10132171 5.4897868 4.6875 8.6875 C4.56761719 9.68136719 4.44773437 10.67523438 4.32421875 11.69921875 C4.21722656 12.45847656 4.11023438 13.21773438 4 14 C-3.06006885 14.93496219 -9.94612235 15.12086777 -17.0625 15.0625 C-18.11888672 15.05798828 -19.17527344 15.05347656 -20.26367188 15.04882812 C-22.84250908 15.03715918 -25.42122294 15.02078885 -28 15 C-28 14.67 -28 14.34 -28 14 C-26.7625 13.9175 -25.525 13.835 -24.25 13.75 C-21.01117036 13.36524541 -20.12092117 13.09975997 -17.5 10.9375 C-17.005 10.298125 -16.51 9.65875 -16 9 C-14.35 9.99 -12.7 10.98 -11 12 C-9.68 10.02 -8.36 8.04 -7 6 C-6.01 6.33 -5.02 6.66 -4 7 C-4 6.34 -4 5.68 -4 5 C-3.34 5 -2.68 5 -2 5 C-2 4.34 -2 3.68 -2 3 C-1.34 3 -0.68 3 0 3 C0 2.01 0 1.02 0 0 Z M1 2 C2 4 2 4 2 4 Z M7 8 C7.33 8.99 7.66 9.98 8 11 C7.34 11.66 6.68 12.32 6 13 C6 10 6 10 7 8 Z " fill="#5762DD" transform="translate(711,441)"/>
<path d="M0 0 C0.33 0 0.66 0 1 0 C1.01458252 1.20124512 1.02916504 2.40249023 1.04418945 3.64013672 C1.10205992 8.08705773 1.17929262 12.53346634 1.26245117 16.97998047 C1.29575369 18.90632831 1.32376889 20.83277499 1.34643555 22.75927734 C1.37988424 25.5248435 1.43219336 28.28949953 1.48828125 31.0546875 C1.49467117 31.9193161 1.5010611 32.7839447 1.50764465 33.67477417 C1.53920053 36.35263663 1.53920053 36.35263663 2 40 C2.99 40.66 3.98 41.32 5 42 C5.66 40.68 6.32 39.36 7 38 C8.98 38.99 10.96 39.98 13 41 C12.34 41.99 11.68 42.98 11 44 C11.020625 45.175625 11.04125 46.35125 11.0625 47.5625 C11.041875 48.696875 11.02125 49.83125 11 51 C7.79191085 53.1387261 6.72301503 53.47730962 3 53 C0.23142342 48.84713512 -0.12735931 45.21255393 -0.11352539 40.30151367 C-0.11344986 39.40095749 -0.11337433 38.50040131 -0.11329651 37.57255554 C-0.10813522 36.6140419 -0.10297394 35.65552826 -0.09765625 34.66796875 C-0.0962413 33.67622147 -0.09482635 32.68447418 -0.09336853 31.66267395 C-0.08778418 28.50425157 -0.07523452 25.34590085 -0.0625 22.1875 C-0.05748298 20.04231873 -0.05292042 17.89713635 -0.04882812 15.75195312 C-0.03781988 10.50127776 -0.0210973 5.250644 0 0 Z " fill="#4A55C0" transform="translate(260,396)"/>
<path d="M0 0 C0.71220703 -0.00386719 1.42441406 -0.00773437 2.15820312 -0.01171875 C5.96030929 -0.00468433 9.49237007 0.210292 13.1875 1.125 C12.0625 2.6875 12.0625 2.6875 10.1875 4.125 C7 3.8125 7 3.8125 4.1875 3.125 C3.8575 3.785 3.5275 4.445 3.1875 5.125 C0.62828795 7.81890742 -1.71425401 10.05950267 -4.8125 12.125 C-5.4725 11.465 -6.1325 10.805 -6.8125 10.125 C-6.8125 9.135 -6.8125 8.145 -6.8125 7.125 C-5.8225 7.125 -4.8325 7.125 -3.8125 7.125 C-3.8125 6.465 -3.8125 5.805 -3.8125 5.125 C-3.4825 4.795 -3.1525 4.465 -2.8125 4.125 C-5.86163228 3.11388907 -5.86163228 3.11388907 -8.8125 4.125 C-9.1425 3.135 -9.4725 2.145 -9.8125 1.125 C-6.70033541 -0.43108229 -3.4117342 -0.01822832 0 0 Z " fill="#5763DE" transform="translate(416.8125,311.875)"/>
<path d="M0 0 C-2.64 2.97 -5.28 5.94 -8 9 C-8.66 8.67 -9.32 8.34 -10 8 C-10.66 9.65 -11.32 11.3 -12 13 C-13.66666667 13 -15.33333333 13 -17 13 C-17.33 13.66 -17.66 14.32 -18 15 C-18.33 14.34 -18.66 13.68 -19 13 C-17.11121858 9.14586494 -14.71183575 6.55500322 -11.5 3.75 C-10.7265625 3.06421875 -9.953125 2.3784375 -9.15625 1.671875 C-5.63249785 -1.06030964 -4.40158993 -1.10039748 0 0 Z " fill="#5763DE" transform="translate(792,312)"/>
<path d="M0 0 C0 0.66 0 1.32 0 2 C-1.42311955 3.15204916 -2.84787432 4.30214304 -4.28125 5.44140625 C-6.79394491 7.71996368 -8.63717904 10.38340188 -10.609375 13.12890625 C-12.22184415 15.29849255 -14.01516075 17.16784069 -16 19 C-15.67 19.99 -15.34 20.98 -15 22 C-15.51949219 22.31453125 -16.03898437 22.6290625 -16.57421875 22.953125 C-20.59705805 25.42185448 -24.38302836 27.94818018 -28 31 C-28.66 30.67 -29.32 30.34 -30 30 C-29.35933594 29.3709375 -28.71867187 28.741875 -28.05859375 28.09375 C-23.5154495 23.5980007 -19.09701895 19.07183304 -14.9296875 14.2265625 C-12.3821789 11.28712951 -9.79421522 8.38695718 -7.1875 5.5 C-6.70676025 4.95875488 -6.22602051 4.41750977 -5.73071289 3.85986328 C-2.22948747 0 -2.22948747 0 0 0 Z " fill="#515CCF" transform="translate(499,632)"/>
<path d="M0 0 C1.32 0.33 2.64 0.66 4 1 C3.875 3.25 3.875 3.25 3 6 C-1.97297297 10 -1.97297297 10 -6 10 C-6.268125 10.639375 -6.53625 11.27875 -6.8125 11.9375 C-8 14 -8 14 -11 15 C-12.37195574 16.29355827 -13.71182656 17.62298702 -15 19 C-15.66 18.67 -16.32 18.34 -17 18 C-16.35933594 17.3709375 -15.71867188 16.741875 -15.05859375 16.09375 C-9.81386016 10.90373047 -4.75821515 5.64053319 0 0 Z " fill="#5663DE" transform="translate(540,585)"/>
<path d="M0 0 C0.7425 0.53625 1.485 1.0725 2.25 1.625 C3.1575 2.07875 4.065 2.5325 5 3 C7.30287793 2.30859649 7.30287793 2.30859649 9 1 C9.33 1.66 9.66 2.32 10 3 C10.66 2.34 11.32 1.68 12 1 C12.33 1.66 12.66 2.32 13 3 C13.99 3.33 14.98 3.66 16 4 C14 6 14 6 11.38623047 6.22705078 C10.30744629 6.21657715 9.22866211 6.20610352 8.1171875 6.1953125 C6.95058594 6.18886719 5.78398438 6.18242187 4.58203125 6.17578125 C3.35871094 6.15902344 2.13539063 6.14226562 0.875 6.125 C-0.35605469 6.11597656 -1.58710937 6.10695313 -2.85546875 6.09765625 C-5.90383815 6.07402548 -8.95182382 6.04108054 -12 6 C-12 5.67 -12 5.34 -12 5 C-10.7625 4.9175 -9.525 4.835 -8.25 4.75 C-5.01117036 4.36524541 -4.12092117 4.09975997 -1.5 1.9375 C-1.005 1.298125 -0.51 0.65875 0 0 Z " fill="#5159CC" transform="translate(695,450)"/>
<path d="M0 0 C10.89 0 21.78 0 33 0 C33 0.33 33 0.66 33 1 C26.4 1 19.8 1 13 1 C12.34 2.32 11.68 3.64 11 5 C8.375 5.75 8.375 5.75 6 6 C5.67 5.01 5.34 4.02 5 3 C4.01 3 3.02 3 2 3 C1.34 2.01 0.68 1.02 0 0 Z " fill="#414BA8" transform="translate(792,310)"/>
<path d="M0 0 C0.33 0.99 0.66 1.98 1 3 C1.66 3 2.32 3 3 3 C3.33 2.01 3.66 1.02 4 0 C4.66 0.33 5.32 0.66 6 1 C6 2.98 6 4.96 6 7 C6.66 7 7.32 7 8 7 C8.33 6.34 8.66 5.68 9 5 C9.99 5.33 10.98 5.66 12 6 C11.67 6.99 11.34 7.98 11 9 C5.76392104 9.65450987 2.90953174 8.09690299 -1.36328125 5.38671875 C-3 4 -3 4 -4 1 C-2 0 -2 0 0 0 Z M7 3 C7.33 4.32 7.66 5.64 8 7 C7.34 7 6.68 7 6 7 C6.33 5.68 6.66 4.36 7 3 Z " fill="#5561DA" transform="translate(268,448)"/>
<path d="M0 0 C0.99 0 1.98 0 3 0 C2.25 1.9375 2.25 1.9375 1 4 C-1.125 4.75 -1.125 4.75 -3 5 C-3.33 6.65 -3.66 8.3 -4 10 C-3.34 10.33 -2.68 10.66 -2 11 C-4.65228812 12.07525194 -7.28368454 13.09456151 -10 14 C-10.825 14.845625 -11.65 15.69125 -12.5 16.5625 C-15 19 -15 19 -18 19 C-17.35933594 18.3709375 -16.71867187 17.741875 -16.05859375 17.09375 C-10.81095204 11.90085269 -5.79263108 6.61338747 -1 1 C-0.67 0.67 -0.34 0.34 0 0 Z " fill="#525DD2" transform="translate(455,678)"/>
<path d="M0 0 C-0.08378906 0.68707031 -0.16757812 1.37414062 -0.25390625 2.08203125 C-0.35574219 2.98308594 -0.45757812 3.88414062 -0.5625 4.8125 C-0.66691406 5.70582031 -0.77132813 6.59914063 -0.87890625 7.51953125 C-1.15658709 10.13375572 -1.15658709 10.13375572 0 13 C-0.99 14.485 -0.99 14.485 -2 16 C-2.28875 15.38125 -2.5775 14.7625 -2.875 14.125 C-3.93720042 11.86674235 -3.93720042 11.86674235 -6 10 C-6 9.34 -6 8.68 -6 8 C-6.99 7.34 -7.98 6.68 -9 6 C-8.07213211 4.99105628 -7.13231567 3.99309093 -6.1875 3 C-5.66542969 2.443125 -5.14335937 1.88625 -4.60546875 1.3125 C-3 0 -3 0 0 0 Z M-5 13 C-4.34 13 -3.68 13 -3 13 C-3.33 13.66 -3.66 14.32 -4 15 C-4.33 14.34 -4.66 13.68 -5 13 Z " fill="#5663DD" transform="translate(435,703)"/>
<path d="M0 0 C5.39882424 4.59474404 10.71333087 9.27676273 16 14 C15.01 14.99 14.02 15.98 13 17 C12.67 16.01 12.34 15.02 12 14 C11.01 13.67 10.02 13.34 9 13 C9 12.34 9 11.68 9 11 C8.34 11 7.68 11 7 11 C5.375 9 5.375 9 4 7 C3.01 7.495 3.01 7.495 2 8 C1.67 7.01 1.34 6.02 1 5 C1.33 4.34 1.66 3.68 2 3 C1.34 3 0.68 3 0 3 C0 2.01 0 1.02 0 0 Z M-1 6 C-0.34 6 0.32 6 1 6 C0.67 6.66 0.34 7.32 0 8 C-0.33 7.34 -0.66 6.68 -1 6 Z " fill="#525DD1" transform="translate(720,575)"/>
<path d="M0 0 C0.66 0.66 1.32 1.32 2 2 C-9.49596973 15.76720995 -9.49596973 15.76720995 -16 17 C-15.67 15.68 -15.34 14.36 -15 13 C-13.02 12.67 -11.04 12.34 -9 12 C-8.67 10.35 -8.34 8.7 -8 7 C-7.34 7 -6.68 7 -6 7 C-5.67 6.34 -5.34 5.68 -5 5 C-4.01 5 -3.02 5 -2 5 C-2 4.34 -2 3.68 -2 3 C-1.34 3 -0.68 3 0 3 C0 2.01 0 1.02 0 0 Z " fill="#535DD3" transform="translate(564,801)"/>
<path d="M0 0 C1.32 1.32 2.64 2.64 4 4 C0.00204108 4.95619733 -3.70803922 5.1039592 -7.8125 5.0625 C-8.97394531 5.05347656 -10.13539063 5.04445313 -11.33203125 5.03515625 C-12.21246094 5.02355469 -13.09289062 5.01195312 -14 5 C-13.67 4.01 -13.34 3.02 -13 2 C-8.6981924 1.04404276 -5.27630845 0.57456385 -1 2 C-0.67 1.34 -0.34 0.68 0 0 Z " fill="#515ACC" transform="translate(497,453)"/>
<path d="M0 0 C0.99 0 1.98 0 3 0 C3 2.31 3 4.62 3 7 C2.01 6.67 1.02 6.34 0 6 C-0.103125 6.639375 -0.20625 7.27875 -0.3125 7.9375 C-0.539375 8.618125 -0.76625 9.29875 -1 10 C-1.99 10.33 -2.98 10.66 -4 11 C-4 8.69 -4 6.38 -4 4 C-3.34 4 -2.68 4 -2 4 C-1.34 2.68 -0.68 1.36 0 0 Z " fill="#5663DE" transform="translate(839,426)"/>
<path d="M0 0 C2.97 0.33 5.94 0.66 9 1 C8.6875 3.375 8.6875 3.375 8 6 C5 8 5 8 2 8 C1.855625 7.05125 1.71125 6.1025 1.5625 5.125 C1.17064601 2.1065506 1.17064601 2.1065506 0 0 Z " fill="#515DD1" transform="translate(626,497)"/>
<path d="M0 0 C0.99 0.33 1.98 0.66 3 1 C3.06058594 1.61488281 3.12117188 2.22976563 3.18359375 2.86328125 C3.26738281 3.67152344 3.35117187 4.47976563 3.4375 5.3125 C3.51871094 6.11300781 3.59992188 6.91351563 3.68359375 7.73828125 C3.95265693 10.16087179 3.95265693 10.16087179 5 13 C3.35 13.33 1.7 13.66 0 14 C0 9.38 0 4.76 0 0 Z " fill="#4D57C4" transform="translate(260,376)"/>
<path d="M0 0 C0.66 0.33 1.32 0.66 2 1 C1.34 1.66 0.68 2.32 0 3 C-0.67292501 4.96690374 -0.67292501 4.96690374 -1.125 7.125 C-1.558125 9.043125 -1.558125 9.043125 -2 11 C-3.66666667 11 -5.33333333 11 -7 11 C-7.33 11.66 -7.66 12.32 -8 13 C-8.33 12.34 -8.66 11.68 -9 11 C-6.85812344 6.46426141 -3.5767035 3.4177389 0 0 Z " fill="#515BCE" transform="translate(782,314)"/>
<path d="M0 0 C0 3.77910478 -0.99703962 4.46106101 -3.5 7.1875 C-4.1496875 7.90292969 -4.799375 8.61835937 -5.46875 9.35546875 C-5.9740625 9.89816406 -6.479375 10.44085937 -7 11 C-7.99 10.67 -8.98 10.34 -10 10 C-9.67 8.35 -9.34 6.7 -9 5 C-8.67 5.66 -8.34 6.32 -8 7 C-7.34 7 -6.68 7 -6 7 C-6 5.68 -6 4.36 -6 3 C-4.02 2.01 -2.04 1.02 0 0 Z " fill="#5560D9" transform="translate(576,789)"/>
<path d="M0 0 C0.99 0.33 1.98 0.66 3 1 C2.25 3.9375 2.25 3.9375 1 7 C-0.9375 7.75 -0.9375 7.75 -3 8 C-3.99 8.66 -4.98 9.32 -6 10 C-6 6 -6 6 -4.6875 4.296875 C-4.130625 3.78640625 -3.57375 3.2759375 -3 2.75 C-2.1646875 1.96882812 -2.1646875 1.96882812 -1.3125 1.171875 C-0.879375 0.78515625 -0.44625 0.3984375 0 0 Z " fill="#525ED3" transform="translate(401,737)"/>
<path d="M0 0 C0.33 0.66 0.66 1.32 1 2 C1.66 2 2.32 2 3 2 C3 3.65 3 5.3 3 7 C2.34 7 1.68 7 1 7 C1 7.99 1 8.98 1 10 C-3.29 10 -7.58 10 -12 10 C-11.67 9.34 -11.34 8.68 -11 8 C-7.7 8 -4.4 8 -1 8 C-0.67 5.36 -0.34 2.72 0 0 Z " fill="#505DD0" transform="translate(383,816)"/>
<path d="M0 0 C2 3.75 2 3.75 2 6 C3.98 6 5.96 6 8 6 C8 6.33 8 6.66 8 7 C3.05 7 -1.9 7 -7 7 C-6.01 6.34 -5.02 5.68 -4 5 C-3.31731862 3.67479497 -2.6492959 2.34187818 -2 1 C-1.34 0.67 -0.68 0.34 0 0 Z " fill="#515CD0" transform="translate(489,814)"/>
<path d="M0 0 C-1.33333333 3.33333333 -2.66666667 6.66666667 -4 10 C-7 10 -7 10 -10 8 C-8.71451591 6.66070495 -7.42141845 5.32871357 -6.125 4 C-5.04605469 2.88625 -5.04605469 2.88625 -3.9453125 1.75 C-2 0 -2 0 0 0 Z " fill="#515DD1" transform="translate(554,572)"/>
<path d="M0 0 C0.99 0.33 1.98 0.66 3 1 C3 4.15084005 2.54526333 5.33871316 1 8 C0.34 8.66 -0.32 9.32 -1 10 C-1.103125 9.360625 -1.20625 8.72125 -1.3125 8.0625 C-1.539375 7.381875 -1.76625 6.70125 -2 6 C-2.99 5.67 -3.98 5.34 -5 5 C-3.35 3.35 -1.7 1.7 0 0 Z " fill="#5561DA" transform="translate(571,551)"/>
<path d="M0 0 C1.18851562 0.00902344 2.37703125 0.01804687 3.6015625 0.02734375 C4.51679688 0.03894531 5.43203125 0.05054688 6.375 0.0625 C5.4159375 0.2171875 5.4159375 0.2171875 4.4375 0.375 C3.756875 0.601875 3.07625 0.82875 2.375 1.0625 C2.045 2.0525 1.715 3.0425 1.375 4.0625 C-1.625 4.0625 -1.625 4.0625 -3.6875 3.5 C-5.6924281 2.83236497 -5.6924281 2.83236497 -7.625 4.0625 C-7.955 3.0725 -8.285 2.0825 -8.625 1.0625 C-5.74084117 -0.37957941 -3.20778472 -0.03144887 0 0 Z " fill="#4853BA" transform="translate(415.625,311.9375)"/>
<path d="M0 0 C0.66 0 1.32 0 2 0 C1.4346089 3.50695293 0.31277274 5.02732613 -2.375 7.3125 C-2.98085938 7.84488281 -3.58671875 8.37726562 -4.2109375 8.92578125 C-4.80132813 9.28027344 -5.39171875 9.63476562 -6 10 C-6.99 9.67 -7.98 9.34 -9 9 C-8.00310405 6.50776013 -7.38477686 5.23583098 -5.0625 3.8125 C-3.39484226 3.15554392 -1.70041355 2.56680452 0 2 C0 1.34 0 0.68 0 0 Z " fill="#5562DB" transform="translate(606,755)"/>
<path d="M0 0 C2.475 0.99 2.475 0.99 5 2 C5 2.99 5 3.98 5 5 C4.01 5.66 3.02 6.32 2 7 C0.4375 5.1875 0.4375 5.1875 -1 3 C-0.67 2.01 -0.34 1.02 0 0 Z M-3 3 C-2.01 3.99 -1.02 4.98 0 6 C-0.99 6.495 -0.99 6.495 -2 7 C-2.33 5.68 -2.66 4.36 -3 3 Z M-5 5 C-4.34 5 -3.68 5 -3 5 C-3.33 5.66 -3.66 6.32 -4 7 C-4.33 6.34 -4.66 5.68 -5 5 Z " fill="#535ED4" transform="translate(731,613)"/>
<path d="M0 0 C1.98 1.65 3.96 3.3 6 5 C4.25 6.5625 4.25 6.5625 2 8 C-0.25 7.6875 -0.25 7.6875 -2 7 C-2.6875 5.1875 -2.6875 5.1875 -3 3 C-1.5625 1.25 -1.5625 1.25 0 0 Z " fill="#5561DA" transform="translate(695,552)"/>
<path d="M0 0 C0.33 0.66 0.66 1.32 1 2 C3.01669827 3.13350534 3.01669827 3.13350534 5 4 C0.375 8 0.375 8 -3 8 C-3.99 7.67 -4.98 7.34 -6 7 C-5.67 6.01 -5.34 5.02 -5 4 C-3.35 4 -1.7 4 0 4 C0 2.68 0 1.36 0 0 Z " fill="#535ED4" transform="translate(266,387)"/>
<path d="M0 0 C-1.55500981 3.81684226 -4.03595495 6.19195732 -7 9 C-7.99 8.67 -8.98 8.34 -10 8 C-7.67029973 2.35967302 -7.67029973 2.35967302 -4.4375 0.625 C-2 0 -2 0 0 0 Z " fill="#535DD3" transform="translate(618,745)"/>
<path d="M0 0 C1.65 0 3.3 0 5 0 C3.51218185 3.78717347 1.38011591 5.77407001 -2 8 C-2.99 7.67 -3.98 7.34 -5 7 C-4.175 6.21625 -3.35 5.4325 -2.5 4.625 C0.22988506 2.36278736 0.22988506 2.36278736 0 0 Z " fill="#535DD3" transform="translate(592,768)"/>
<path d="M0 0 C0.99 0.33 1.98 0.66 3 1 C2.67 1.99 2.34 2.98 2 4 C-0.0625 4.6875 -0.0625 4.6875 -2 5 C-2.33 6.65 -2.66 8.3 -3 10 C-3.99 10 -4.98 10 -6 10 C-5.49477778 5.62140745 -2.82172778 3.18348776 0 0 Z " fill="#525DD2" transform="translate(387,752)"/>
<path d="M0 0 C0.99 0.33 1.98 0.66 3 1 C2.875 2.875 2.875 2.875 2 5 C-0.875 6.125 -0.875 6.125 -4 7 C-4.99 7.66 -5.98 8.32 -7 9 C-5.44499019 5.18315774 -2.96404505 2.80804268 0 0 Z " fill="#515DD1" transform="translate(562,561)"/>
<path d="M0 0 C0.66 0.66 1.32 1.32 2 2 C1.63318342 4.93453261 1.13562754 5.86437246 -1 8 C-1.66 7.34 -2.32 6.68 -3 6 C-4.32 6.99 -5.64 7.98 -7 9 C-5.44499019 5.18315774 -2.96404505 2.80804268 0 0 Z " fill="#515CD0" transform="translate(358,784)"/>
<path d="M0 0 C1.32 0.99 2.64 1.98 4 3 C3.3125 4.9375 3.3125 4.9375 2 7 C-0.625 7.75 -0.625 7.75 -3 8 C-3 4.42424104 -1.91159393 2.94704065 0 0 Z " fill="#535FD6" transform="translate(709,565)"/>
<path d="M0 0 C1.98 0.66 3.96 1.32 6 2 C3.75 4.5625 3.75 4.5625 1 7 C-1.3125 6.8125 -1.3125 6.8125 -3 6 C-2.01 4.02 -1.02 2.04 0 0 Z " fill="#515ED2" transform="translate(828,311)"/>
<path d="M0 0 C0.99 0.33 1.98 0.66 3 1 C3 2.32 3 3.64 3 5 C6.3 5.33 9.6 5.66 13 6 C13 6.33 13 6.66 13 7 C9.04 7 5.08 7 1 7 C0.67 6.34 0.34 5.68 0 5 C-0.99 5.495 -0.99 5.495 -2 6 C-2 5.01 -2 4.02 -2 3 C-1.34 3 -0.68 3 0 3 C0 2.01 0 1.02 0 0 Z " fill="#4F5CCE" transform="translate(393,818)"/>
<path d="M0 0 C0.33 1.32 0.66 2.64 1 4 C0.01 4.66 -0.98 5.32 -2 6 C-2.99 5.67 -3.98 5.34 -5 5 C-5.99 5 -6.98 5 -8 5 C-3.375 0 -3.375 0 0 0 Z " fill="#525DD2" transform="translate(510,621)"/>
<path d="M0 0 C0.33 0.66 0.66 1.32 1 2 C2.32 2 3.64 2 5 2 C6.00496852 5.01490557 6.10335303 7.04181692 6.0625 10.1875 C6.05347656 11.08855469 6.04445313 11.98960937 6.03515625 12.91796875 C6.02355469 13.60503906 6.01195312 14.29210937 6 15 C5.67 15 5.34 15 5 15 C4.67 12.03 4.34 9.06 4 6 C2.35 5.67 0.7 5.34 -1 5 C-0.67 3.35 -0.34 1.7 0 0 Z " fill="#4652B6" transform="translate(616,400)"/>
<path d="M0 0 C0 3.44360632 -0.79591532 4.74795392 -2.5 7.6875 C-2.9640625 8.49574219 -3.428125 9.30398438 -3.90625 10.13671875 C-4.44765625 11.05904297 -4.44765625 11.05904297 -5 12 C-5.66 10.68 -6.32 9.36 -7 8 C-4.69 5.36 -2.38 2.72 0 0 Z " fill="#505BCE" transform="translate(517,610)"/>
<path d="M0 0 C0.66 1.32 1.32 2.64 2 4 C-2.64849515 6.3992233 -6.91086074 6.19957409 -12 6 C-12 5.67 -12 5.34 -12 5 C-10.7625 4.9175 -9.525 4.835 -8.25 4.75 C-5.01117036 4.36524541 -4.12092117 4.09975997 -1.5 1.9375 C-1.005 1.298125 -0.51 0.65875 0 0 Z " fill="#4650B4" transform="translate(695,450)"/>
<path d="M0 0 C0.99 0.66 1.98 1.32 3 2 C1.37660195 3.70884005 -0.29319053 5.37446717 -2 7 C-3.66666667 7 -5.33333333 7 -7 7 C-4.69 4.69 -2.38 2.38 0 0 Z " fill="#515DD0" transform="translate(606,513)"/>
<path d="M0 0 C-0.33 1.65 -0.66 3.3 -1 5 C-1.66 4.34 -2.32 3.68 -3 3 C-4.93798263 5.77260299 -4.93798263 5.77260299 -6 8 C-6.99 7.34 -7.98 6.68 -9 6 C-8.07213211 4.99105628 -7.13231567 3.99309093 -6.1875 3 C-5.66542969 2.443125 -5.14335937 1.88625 -4.60546875 1.3125 C-3 0 -3 0 0 0 Z " fill="#4F59CA" transform="translate(435,703)"/>
<path d="M0 0 C4.875 3.625 4.875 3.625 6 7 C3.6568787 6.74438677 1.32156597 6.40729228 -1 6 C-1.33 5.34 -1.66 4.68 -2 4 C-1.0625 1.875 -1.0625 1.875 0 0 Z " fill="#4E5BCB" transform="translate(834,314)"/>
<path d="M0 0 C-0.99 1.32 -1.98 2.64 -3 4 C-4.32 3.67 -5.64 3.34 -7 3 C-7 2.01 -7 1.02 -7 0 C-3.86650268 -1.04449911 -3.01031744 -0.93423645 0 0 Z " fill="#525FD5" transform="translate(792,312)"/>
<path d="M0 0 C2.475 0.495 2.475 0.495 5 1 C4.01 1.495 4.01 1.495 3 2 C2.67 2.99 2.34 3.98 2 5 C1.34 4.67 0.68 4.34 0 4 C0 2.68 0 1.36 0 0 Z M-3 4 C-2.01 4.33 -1.02 4.66 0 5 C0 5.66 0 6.32 0 7 C-0.99 6.67 -1.98 6.34 -3 6 C-3 5.34 -3 4.68 -3 4 Z " fill="#515CD1" transform="translate(361,820)"/>
<path d="M0 0 C0.33 0.66 0.66 1.32 1 2 C1.66 2 2.32 2 3 2 C2.34 3.32 1.68 4.64 1 6 C-1.97 6 -4.94 6 -8 6 C-8 5.67 -8 5.34 -8 5 C-7.05125 4.855625 -6.1025 4.71125 -5.125 4.5625 C-2.1065506 4.17064601 -2.1065506 4.17064601 0 3 C0 2.01 0 1.02 0 0 Z " fill="#4C58C6" transform="translate(518,814)"/>
<path d="M0 0 C0.66 0.66 1.32 1.32 2 2 C1.8125 4 1.8125 4 1 6 C0.01 6.66 -0.98 7.32 -2 8 C-2.99 7.34 -3.98 6.68 -5 6 C-4.360625 5.38125 -3.72125 4.7625 -3.0625 4.125 C-0.96116416 2.17402388 -0.96116416 2.17402388 0 0 Z " fill="#515CCF" transform="translate(670,683)"/>
<path d="M0 0 C0.59296875 0.22558594 1.1859375 0.45117188 1.796875 0.68359375 C1.466875 1.67359375 1.136875 2.66359375 0.796875 3.68359375 C-0.193125 3.35359375 -1.183125 3.02359375 -2.203125 2.68359375 C-3.523125 4.00359375 -4.843125 5.32359375 -6.203125 6.68359375 C-6.863125 6.35359375 -7.523125 6.02359375 -8.203125 5.68359375 C-7.30284912 4.64827649 -6.38219465 3.6306521 -5.453125 2.62109375 C-4.68742188 1.76837891 -4.68742188 1.76837891 -3.90625 0.8984375 C-2.203125 -0.31640625 -2.203125 -0.31640625 0 0 Z " fill="#505BCE" transform="translate(542.203125,585.31640625)"/>
<path d="M0 0 C0.66 0 1.32 0 2 0 C1.67 1.32 1.34 2.64 1 4 C0.34 4 -0.32 4 -1 4 C-1 4.66 -1 5.32 -1 6 C-2.65 6.66 -4.3 7.32 -6 8 C-6 7.34 -6 6.68 -6 6 C-5.34 6 -4.68 6 -4 6 C-4 5.34 -4 4.68 -4 4 C-3.34 4 -2.68 4 -2 4 C-2 3.34 -2 2.68 -2 2 C-1.34 2 -0.68 2 0 2 C0 1.34 0 0.68 0 0 Z " fill="#4E5AC9" transform="translate(712,384)"/>
<path d="M0 0 C0.103125 0.639375 0.20625 1.27875 0.3125 1.9375 C0.539375 2.618125 0.76625 3.29875 1 4 C1.99 4.33 2.98 4.66 4 5 C3.34 5.66 2.68 6.32 2 7 C0.02 5.35 -1.96 3.7 -4 2 C-2.68 1.34 -1.36 0.68 0 0 Z " fill="#525CD0" transform="translate(349,818)"/>
<path d="M0 0 C2.31 0.33 4.62 0.66 7 1 C5.875 2.5625 5.875 2.5625 4 4 C0.8125 3.6875 0.8125 3.6875 -2 3 C-1.34 2.01 -0.68 1.02 0 0 Z M-4 3 C-3.34 3 -2.68 3 -2 3 C-2.33 3.66 -2.66 4.32 -3 5 C-3.33 4.34 -3.66 3.68 -4 3 Z " fill="#525ED3" transform="translate(423,312)"/>
<path d="M0 0 C0.66 0.66 1.32 1.32 2 2 C0.35 3.65 -1.3 5.3 -3 7 C-3.1875 4.625 -3.1875 4.625 -3 2 C-2.01 1.34 -1.02 0.68 0 0 Z " fill="#515BCF" transform="translate(660,696)"/>
<path d="M0 0 C0.99 0 1.98 0 3 0 C1.63016497 3.16115776 1.0109362 3.9927092 -2 6 C-2.66 5.01 -3.32 4.02 -4 3 C-3.34 3 -2.68 3 -2 3 C-1.67 2.34 -1.34 1.68 -1 1 C-0.67 0.67 -0.34 0.34 0 0 Z " fill="#505ACC" transform="translate(723,627)"/>
<path d="M0 0 C1.5625 1.125 1.5625 1.125 3 3 C2.6875 6.1875 2.6875 6.1875 2 9 C0.4375 7.3125 0.4375 7.3125 -1 5 C-0.6875 2.25 -0.6875 2.25 0 0 Z " fill="#525ED3" transform="translate(262,322)"/>
<path d="M0 0 C0.33 0.66 0.66 1.32 1 2 C3.35599235 2.46751788 3.35599235 2.46751788 6.0625 2.625 C7.44115234 2.73714844 7.44115234 2.73714844 8.84765625 2.8515625 C9.55792969 2.90054688 10.26820313 2.94953125 11 3 C11 3.33 11 3.66 11 4 C7.04 4 3.08 4 -1 4 C-1.33 3.34 -1.66 2.68 -2 2 C-1.34 2 -0.68 2 0 2 C0 1.34 0 0.68 0 0 Z " fill="#4D5AC8" transform="translate(417,820)"/>
<path d="M0 0 C0.66 0.33 1.32 0.66 2 1 C2 1.66 2 2.32 2 3 C1.01 3.33 0.02 3.66 -1 4 C-2.37195574 5.29355827 -3.71182656 6.62298702 -5 8 C-5.66 7.67 -6.32 7.34 -7 7 C-4.69 4.69 -2.38 2.38 0 0 Z " fill="#4F59C9" transform="translate(530,596)"/>
<path d="M0 0 C0 3 0 3 -2 5.1875 C-2.66 5.785625 -3.32 6.38375 -4 7 C-4.33 5.35 -4.66 3.7 -5 2 C-3.35 1.34 -1.7 0.68 0 0 Z " fill="#525CD0" transform="translate(587,777)"/>
<path d="M0 0 C0.66 0 1.32 0 2 0 C1.60196439 2.88575819 1.20990931 3.82189513 -1.0625 5.75 C-1.701875 6.1625 -2.34125 6.575 -3 7 C-2.67 5.35 -2.34 3.7 -2 2 C-1.34 2 -0.68 2 0 2 C0 1.34 0 0.68 0 0 Z " fill="#4E58C8" transform="translate(606,755)"/>
<path d="M0 0 C0 2.64 0 5.28 0 8 C-0.268125 7.360625 -0.53625 6.72125 -0.8125 6.0625 C-1.88667752 3.66868314 -1.88667752 3.66868314 -5 3 C-2.25 0 -2.25 0 0 0 Z " fill="#505ACD" transform="translate(571,553)"/>
<path d="M0 0 C-0.66 1.65 -1.32 3.3 -2 5 C-2.99 5 -3.98 5 -5 5 C-5.33 4.34 -5.66 3.68 -6 3 C-3.375 0 -3.375 0 0 0 Z " fill="#505BCE" transform="translate(840,444)"/>
<path d="M0 0 C0.99 0 1.98 0 3 0 C3 2.31 3 4.62 3 7 C2.01 6.67 1.02 6.34 0 6 C0.33 4.68 0.66 3.36 1 2 C0.34 1.67 -0.32 1.34 -1 1 C-0.67 0.67 -0.34 0.34 0 0 Z " fill="#4B55BF" transform="translate(839,426)"/>
<path d="M0 0 C0.33 0.66 0.66 1.32 1 2 C0.06553465 4.03144641 -0.93224776 6.03533587 -2 8 C-2.33 7.34 -2.66 6.68 -3 6 C-3.66 5.67 -4.32 5.34 -5 5 C-3.35 3.35 -1.7 1.7 0 0 Z " fill="#525ED3" transform="translate(268,315)"/>
<path d="M0 0 C0 3 0 3 -2 5.1875 C-2.66 5.785625 -3.32 6.38375 -4 7 C-4.33 5.68 -4.66 4.36 -5 3 C-3.35 2.01 -1.7 1.02 0 0 Z " fill="#525BD0" transform="translate(576,789)"/>
<path d="M0 0 C-1.39332574 3.36720387 -2.9789286 4.9859524 -6 7 C-6.66 6.67 -7.32 6.34 -8 6 C-7.0479279 4.99403703 -6.08812654 3.99538437 -5.125 3 C-4.59132813 2.443125 -4.05765625 1.88625 -3.5078125 1.3125 C-2 0 -2 0 0 0 Z " fill="#4F5ACA" transform="translate(467,667)"/>
<path d="M0 0 C0.66 0.33 1.32 0.66 2 1 C0.63016497 4.16115776 0.0109362 4.9927092 -3 7 C-3.33 6.01 -3.66 5.02 -4 4 C-2.68 2.68 -1.36 1.36 0 0 Z " fill="#4D58C6" transform="translate(692,661)"/>
<path d="M0 0 C0.33 0.66 0.66 1.32 1 2 C1.66 2.33 2.32 2.66 3 3 C1.35 4.32 -0.3 5.64 -2 7 C-2.125 4.625 -2.125 4.625 -2 2 C-1.34 1.34 -0.68 0.68 0 0 Z " fill="#5059CA" transform="translate(701,650)"/>
<path d="M0 0 C1.32 1.32 2.64 2.64 4 4 C2.02 4.33 0.04 4.66 -2 5 C-2.33 4.34 -2.66 3.68 -3 3 C-2.01 2.01 -1.02 1.02 0 0 Z " fill="#4D59C7" transform="translate(695,552)"/>
<path d="M0 0 C1.33332095 2.6666419 0.67102033 4.16680303 0 7 C-0.99 7 -1.98 7 -3 7 C-2.38722388 4.03824877 -1.74627478 2.61941217 0 0 Z " fill="#515DD2" transform="translate(578,543)"/>
<path d="M0 0 C2.97 1.98 2.97 1.98 6 4 C5.01 4.33 4.02 4.66 3 5 C2.34 4.67 1.68 4.34 1 4 C0.67 4.66 0.34 5.32 0 6 C0 4.02 0 2.04 0 0 Z " fill="#515CD0" transform="translate(636,499)"/>
<path d="M0 0 C0.33 1.65 0.66 3.3 1 5 C0.01 5 -0.98 5 -2 5 C-2.66 3.68 -3.32 2.36 -4 1 C-2 0 -2 0 0 0 Z " fill="#525CD1" transform="translate(268,448)"/>
</svg>
